<?xml version="1.0" encoding="UTF-8" standalone="no"?>
<!-- Created with Inkscape (http://www.inkscape.org/) -->

<svg
   xmlns:dc="http://purl.org/dc/elements/1.1/"
   xmlns:cc="http://creativecommons.org/ns#"
   xmlns:rdf="http://www.w3.org/1999/02/22-rdf-syntax-ns#"
   xmlns:svg="http://www.w3.org/2000/svg"
   xmlns="http://www.w3.org/2000/svg"
   xmlns:sodipodi="http://sodipodi.sourceforge.net/DTD/sodipodi-0.dtd"
   xmlns:inkscape="http://www.inkscape.org/namespaces/inkscape"
   width="210mm"
   height="297mm"
   viewBox="0 0 744.09448819 1052.3622047"
   id="svg2"
   version="1.1"
   inkscape:version="0.91 r13725"
   sodipodi:docname="layout.svg"
   inkscape:export-filename="/home/davikson/Dokumenty/WDS/layout.png"
   inkscape:export-xdpi="90"
   inkscape:export-ydpi="90">
  <defs
     id="defs4" />
  <sodipodi:namedview
     id="base"
     pagecolor="#ffffff"
     bordercolor="#666666"
     borderopacity="1.0"
     inkscape:pageopacity="0.0"
     inkscape:pageshadow="2"
     inkscape:zoom="0.98994949"
     inkscape:cx="261.09504"
     inkscape:cy="825.67149"
     inkscape:document-units="px"
     inkscape:current-layer="layer1"
     showgrid="false"
     showguides="false"
     inkscape:window-width="1920"
     inkscape:window-height="1015"
     inkscape:window-x="0"
     inkscape:window-y="0"
     inkscape:window-maximized="1" />
  <metadata
     id="metadata7">
    <rdf:RDF>
      <cc:Work
         rdf:about="">
        <dc:format>image/svg+xml</dc:format>
        <dc:type
           rdf:resource="http://purl.org/dc/dcmitype/StillImage" />
        <dc:title></dc:title>
      </cc:Work>
    </rdf:RDF>
  </metadata>
  <g
     inkscape:label="Layer 1"
     inkscape:groupmode="layer"
     id="layer1">
    <rect
       style="fill:#0000ff;fill-rule:evenodd;stroke:#000000;stroke-width:2;stroke-linecap:butt;stroke-linejoin:miter;stroke-opacity:1;fill-opacity:0;stroke-miterlimit:4;stroke-dasharray:none"
       id="rect4146"
       width="607.10168"
       height="306.07623"
       x="67.680222"
       y="66.453323" />
    <rect
       style="fill:#0000ff;fill-opacity:0;stroke-width:4;stroke-miterlimit:4;stroke-dasharray:none"
       id="rect4150"
       width="355.06863"
       height="297.48993"
       x="313.65237"
       y="70.999008" />
    <rect
       style="fill:#0000ff;fill-opacity:0;stroke-width:4;stroke-miterlimit:4;stroke-dasharray:none"
       id="rect4154"
       width="243.44676"
       height="188.39345"
       x="95.964493"
       y="91.202057" />
    <rect
       style="fill:#0000ff;fill-opacity:0;stroke-width:4;stroke-miterlimit:4;stroke-dasharray:none"
       id="rect4156"
       width="204.55589"
       height="161.6244"
       x="260.11429"
       y="89.181755" />
    <rect
       style="fill:#0000ff;fill-opacity:0;stroke:#000000;stroke-width:2;stroke-miterlimit:4;stroke-dasharray:none;stroke-opacity:1"
       id="rect4160"
       width="397.49503"
       height="297.99503"
       x="273.75131"
       y="70.493927" />
    <rect
       style="fill:#0000ff;fill-opacity:0;stroke:#000000;stroke-width:2;stroke-miterlimit:4;stroke-dasharray:none;stroke-opacity:1"
       id="rect4164"
       width="196.4747"
       height="178.79703"
       x="72.225906"
       y="69.988853" />
    <rect
       style="fill:#0000ff;fill-opacity:0;stroke:#000000;stroke-width:2;stroke-miterlimit:4;stroke-dasharray:none;stroke-opacity:1"
       id="rect4166"
       width="195.9696"
       height="113.64217"
       x="72.73098"
       y="253.33154" />
    <path
       style="fill:none;fill-rule:evenodd;stroke:#000000;stroke-width:1px;stroke-linecap:butt;stroke-linejoin:miter;stroke-opacity:1"
       d="m 92.934034,92.717286 0,137.885824"
       id="path4188"
       inkscape:connector-curvature="0" />
    <path
       style="fill:#666666;fill-rule:evenodd;stroke:#000000;stroke-width:1px;stroke-linecap:butt;stroke-linejoin:miter;stroke-opacity:1"
       d="m 92.934034,165.44827 153.543186,1.01015"
       id="path4190"
       inkscape:connector-curvature="0" />
    <path
       style="fill:none;fill-rule:evenodd;stroke:#000000;stroke-width:1px;stroke-linecap:butt;stroke-linejoin:miter;stroke-opacity:1"
       d="m 90.661191,94.863859 c 0.04209,-0.168358 0.08418,-0.336717 0.126269,-0.505076 0.04209,0 0.09651,0.02976 0.126269,0 0.02581,-0.02581 -0.02503,-0.328743 0,-0.378807 0.02662,-0.05324 0.09965,-0.07303 0.126269,-0.126269 0.03765,-0.07529 -0.05952,-0.193015 0,-0.252538 0.02976,-0.02976 0.09651,0.02976 0.126269,0 0.03038,-0.03038 -0.03038,-0.474692 0,-0.505077 0.02976,-0.02976 0.09651,0.02976 0.126269,0 0.02581,-0.02581 -0.02503,-0.328742 0,-0.378807 0.02662,-0.05324 0.09965,-0.07303 0.126269,-0.126269 0.03765,-0.07529 -0.03765,-0.177246 0,-0.252538 0.02662,-0.05324 0.09965,-0.07303 0.12627,-0.126269 0.01882,-0.03765 -0.01882,-0.08862 0,-0.126269 0.02662,-0.05324 0.09965,-0.07303 0.126269,-0.126269 0.01882,-0.03765 0,-0.08418 0,-0.126269 0.04209,-0.04209 0.09965,-0.07303 0.126269,-0.126269 0.01882,-0.03765 -0.02976,-0.09651 0,-0.126269 0.02976,-0.02976 0.09651,0.02976 0.126269,0 0.05952,-0.05952 -0.05952,-0.193015 0,-0.252539 0.02976,-0.02976 0.09651,0.02976 0.126269,0 0.02976,-0.02976 -0.01882,-0.08862 0,-0.126269 0.02662,-0.05324 0.08418,-0.08418 0.126269,-0.126269 0.418782,-0.418782 -0.05952,0.119048 0.126269,-0.252538 0.02662,-0.05324 0.09965,-0.07303 0.126269,-0.126269 0.03765,-0.07529 -0.05952,-0.193014 0,-0.252538 0.02976,-0.02976 0.09651,0.02976 0.126269,0 0.02976,-0.02976 -0.04209,-0.126269 0,-0.126269 0.04209,0 -0.02976,0.09651 0,0.126269 0.261255,0.261255 -0.01021,-0.399233 0.252538,0.126269 0.01882,0.03765 -0.01882,0.08862 0,0.126269 0.02924,0.05847 0.430812,0.430812 0.505077,0.505076 0.04209,0.04209 0.09965,0.07303 0.126269,0.126269 0.01882,0.03765 0,0.08418 0,0.126269 0.04209,0.08418 0.07406,0.17423 0.126269,0.252539 0.06603,0.09905 0.214892,0.139599 0.252538,0.252538 0.02662,0.07986 -0.02662,0.172678 0,0.252538 0.01882,0.05647 0.09965,0.07303 0.126269,0.126269 0.01882,0.03765 -0.01331,0.08634 0,0.126269 0.07644,0.229333 0.108067,0.234336 0.252538,0.378807 0.04209,0.04209 0.09965,0.07303 0.126269,0.126269 0.01882,0.03765 -0.01882,0.08862 0,0.126269 0.01208,0.02417 0.480906,0.492991 0.505076,0.505077 0.17417,0.08709 0.112945,-0.152919 0.252538,0.126269 0.01882,0.03765 -0.01882,0.08862 0,0.126269 0.05324,0.106479 0.199299,0.146058 0.252539,0.252538 0.01882,0.03765 -0.02976,0.09651 0,0.126269 0.02976,0.02976 0.09651,-0.02976 0.126269,0 0.02976,0.02976 -0.02976,0.09651 0,0.126269 0.261255,0.261255 -0.01021,-0.399233 0.252538,0.126269 0.01882,0.03765 -0.02976,0.09651 0,0.126269 0.02976,0.02976 0.08862,-0.01882 0.126269,0 0.525502,0.262751 -0.134986,-0.0087 0.126269,0.252538 0.168359,0.168359 0.126269,-0.210448 0.126269,0.126269"
       id="path4192"
       inkscape:connector-curvature="0" />
    <path
       style="fill:none;fill-rule:evenodd;stroke:#000000;stroke-width:1px;stroke-linecap:butt;stroke-linejoin:miter;stroke-opacity:1"
       d="m 243.6993,163.30169 c 1.27176,-0.27713 0.20527,0.45781 0.37881,0.63135 0.26125,0.26125 -0.0102,-0.39923 0.25254,0.12627 0.0188,0.0376 -0.0188,0.0886 0,0.12627 0.0532,0.10648 0.1993,0.14606 0.25254,0.25254 0.0188,0.0376 -0.0298,0.0965 0,0.12627 0.0298,0.0298 0.0965,-0.0298 0.12626,0 0.0298,0.0298 -0.0188,0.0886 0,0.12626 0.0532,0.10648 0.1993,0.14606 0.25254,0.25254 0.0188,0.0377 -0.0188,0.0886 0,0.12627 0.26275,0.5255 -0.009,-0.13498 0.25254,0.12627 0.0298,0.0298 -0.0188,0.0886 0,0.12627 0.0532,0.10648 0.1993,0.14606 0.25254,0.25254 0.0188,0.0376 -0.0298,0.0965 0,0.12627 0.26125,0.26125 -0.0102,-0.39924 0.25254,0.12627 0.0188,0.0376 -0.0298,0.0965 0,0.12626 0.0298,0.0298 0.0886,-0.0188 0.12627,0 0.10648,0.0532 0.14605,0.1993 0.25253,0.25254 0.0376,0.0188 0.0965,-0.0298 0.12627,0 0.0298,0.0298 -0.0298,0.0965 0,0.12627 0.0298,0.0298 0.0965,-0.0298 0.12627,0 0.0298,0.0298 -0.0298,0.0965 0,0.12627 0.0298,0.0298 0.0965,-0.0298 0.12627,0 0.0298,0.0298 -0.0188,0.0886 0,0.12627 0.0532,0.10648 0.1993,0.14606 0.25254,0.25254 0.0188,0.0376 -0.0298,0.0965 0,0.12627 0.0298,0.0298 0.0965,-0.0298 0.12627,0 0.0595,0.0595 -0.0377,0.17724 0,0.25254 0.0532,0.10647 0.1993,0.14605 0.25254,0.25253 0.10101,0.20203 -0.0589,0.0926 -0.12627,0.12627 -0.5255,0.26275 0.13498,-0.009 -0.12627,0.25254 -0.0298,0.0298 -0.0886,-0.0188 -0.12627,0 -0.5255,0.26275 0.13499,-0.009 -0.12627,0.25254 -0.0298,0.0298 -0.0886,-0.0188 -0.12627,0 -0.0532,0.0266 -0.0842,0.0842 -0.12627,0.12627 -0.0992,0.0992 -0.55091,0.59113 -0.63134,0.63134 -0.17417,0.0871 -0.11295,-0.15292 -0.25254,0.12627 0,0.33672 0.0421,-0.0421 -0.12627,0.12627 -0.0298,0.0298 0.0298,0.0965 0,0.12627 -0.0298,0.0298 -0.0965,-0.0298 -0.12627,0 -0.0298,0.0298 0.0298,0.0965 0,0.12627 -0.0298,0.0298 -0.0965,-0.0298 -0.12627,0 -0.0298,0.0298 0.0298,0.0965 0,0.12627 -0.0298,0.0298 -0.0886,-0.0188 -0.12627,0 -0.0532,0.0266 -0.073,0.0996 -0.12627,0.12627 -0.0376,0.0188 -0.0965,-0.0298 -0.12627,0 -0.0298,0.0298 0.0298,0.0965 0,0.12627 -0.0298,0.0298 -0.0965,-0.0298 -0.12626,0 -0.0298,0.0298 0,0.0842 0,0.12627 -0.0421,0 -0.0965,-0.0298 -0.12627,0 -0.0298,0.0298 0.0298,0.0965 0,0.12626 -0.0298,0.0298 -0.0965,-0.0298 -0.12627,0 -0.0298,0.0298 0.0298,0.0965 0,0.12627 -0.0298,0.0298 -0.0965,-0.0298 -0.12627,0 -0.0298,0.0298 0.0298,0.0965 0,0.12627 -0.0298,0.0298 -0.0965,-0.0298 -0.12627,0 -0.0298,0.0298 0.0298,0.0965 0,0.12627 -0.0298,0.0298 -0.0965,-0.0298 -0.12627,0 -0.0298,0.0298 0.0298,0.0965 0,0.12627 -0.0298,0.0298 -0.0965,-0.0298 -0.12627,0 -0.0298,0.0298 0.0188,0.0886 0,0.12627 -0.0876,0.17527 -0.22467,0.12627 -0.37881,0.12627"
       id="path4194"
       inkscape:connector-curvature="0" />
    <path
       style="fill:none;fill-rule:evenodd;stroke:#000000;stroke-width:1px;stroke-linecap:butt;stroke-linejoin:miter;stroke-opacity:1"
       d="m 94.285714,164.68363 c 0.119048,-0.23809 0.238096,-0.47619 0.357143,-0.71428 0,-0.0595 -0.02662,-0.12534 0,-0.17858 0.07529,-0.15058 0.281851,-0.20655 0.357143,-0.35714 0.05324,-0.10648 -0.05324,-0.25066 0,-0.35714 0.03765,-0.0753 0.140925,-0.10328 0.178572,-0.17857 0.02662,-0.0532 0,-0.11905 0,-0.17857 0.05952,-0.0595 0.140925,-0.10328 0.178571,-0.17858 0.05324,-0.10648 -0.05324,-0.25066 0,-0.35714 0.03765,-0.0753 0.140925,-0.10328 0.178571,-0.17857 0.05324,-0.10648 -0.05324,-0.25066 0,-0.35714 0.592247,-0.59225 -0.08418,0.16836 0.178572,-0.35715 0.03765,-0.0753 0.140925,-0.10327 0.178571,-0.17857 0.09523,-0.19045 -0.09523,-0.16669 0,-0.35714 0.03765,-0.0753 0.140926,-0.10328 0.178572,-0.17857 0.05324,-0.10648 -0.05324,-0.25066 0,-0.35714 0.03765,-0.0753 0.140925,-0.10328 0.178571,-0.17858 0.05324,-0.10648 -0.05324,-0.25066 0,-0.35714 0.03765,-0.0753 0.140925,-0.10328 0.178572,-0.17857 0.02662,-0.0532 -0.01882,-0.1221 0,-0.17857 0.04209,-0.12627 0.136481,-0.23088 0.178571,-0.35714 0.01882,-0.0565 -0.01882,-0.12211 0,-0.17858 0.08418,-0.25253 0.29258,-0.45603 0.357143,-0.71428 0.02887,-0.11549 -0.03765,-0.24421 0,-0.35714 0.02662,-0.0799 0.131877,-0.10853 0.178571,-0.17858 0.07383,-0.11074 0.136482,-0.23087 0.178572,-0.35714 0.01882,-0.0565 0,-0.11905 0,-0.17857 0.05952,-0.0595 0.140925,-0.10328 0.178571,-0.17857 0.02662,-0.0532 -0.02662,-0.12533 0,-0.17857 0.03765,-0.0753 0.140925,-0.10328 0.178572,-0.17857 0.02662,-0.0532 0,-0.11905 0,-0.17858 0.05952,-0.11904 0.104741,-0.24639 0.178571,-0.35714 0.04669,-0.07 0.140925,-0.10328 0.178571,-0.17857 0.02662,-0.0532 -0.02662,-0.12533 0,-0.17857 0.03765,-0.0753 0.140926,-0.10328 0.178572,-0.17857 0.02662,-0.0532 -0.01882,-0.12211 0,-0.17857 0.04209,-0.12627 0.136482,-0.23088 0.178571,-0.35715 0.01882,-0.0565 -0.02662,-0.12533 0,-0.17857 0.592247,-0.59225 -0.08418,0.16836 0.178572,-0.35714 0.03765,-0.0753 0.140925,-0.10328 0.178571,-0.17857 0.02662,-0.0532 -0.02662,-0.12533 0,-0.17857 0.592247,-0.59225 -0.08418,0.16835 0.178572,-0.35715 0.07529,-0.15058 0.303903,-0.19742 0.357142,-0.35714 0.03765,-0.11294 -0.03765,-0.2442 0,-0.35714 0.02646,-0.0794 0.330682,-0.27776 0.357143,-0.35715 0.03765,-0.11293 -0.03765,-0.2442 0,-0.35714 0.05324,-0.15972 0.303903,-0.19742 0.357143,-0.35714 0.0376,-0.11294 -0.03765,-0.24421 0,-0.35714 0.0266,-0.0799 0.13188,-0.10853 0.17857,-0.17858 0.33829,0.0203 0.11905,-0.41666 0.17857,-0.53571 0.27229,-0.54456 0.14157,0.3266 0.35715,-0.53571 0.0289,-0.1155 -0.0376,-0.24421 0,-0.35715 0.0266,-0.0799 0.13187,-0.10853 0.17857,-0.17857 0.6014,-0.90211 0.001,-0.004 0.17857,-0.53571 0.0842,-0.25254 0.23809,-0.47619 0.35714,-0.71429 0.0595,-0.11905 0.14629,-0.22802 0.17857,-0.35714 0.0289,-0.11549 -0.0289,-0.24165 0,-0.35714 0.0323,-0.12913 0.11905,-0.2381 0.17857,-0.35715 0.20075,-0.40148 0.44643,-0.80356 0.53572,-1.25 0.0233,-0.11673 -0.0377,-0.2442 0,-0.35714 0.0532,-0.15972 0.28185,-0.20656 0.35714,-0.35714 0.0266,-0.0532 0,-0.11905 0,-0.17857 0,-0.0595 0,-0.11905 0,-0.17858 0,-0.35714 0,-0.71428 0,-1.07142 0,-0.0595 0.0421,-0.13649 0,-0.17858 -0.0421,-0.0421 -0.13648,0.0421 -0.17857,0 -0.0252,-0.0252 -0.0183,-0.49908 0,-0.53571 0.0376,-0.0753 0.14093,-0.10328 0.17857,-0.17857 0.0714,-0.14286 -0.0714,-0.39286 0,-0.53572 0.0377,-0.0753 0.15195,-0.0987 0.17857,-0.17857 0.0632,-0.18975 -0.0632,-0.52453 0,-0.71428 0.0421,-0.12627 0.13648,-0.23088 0.17857,-0.35715 0.0188,-0.0565 -0.0188,-0.1221 0,-0.17857 0.0421,-0.12627 0.13649,-0.23087 0.17858,-0.35714 0.0188,-0.0565 -0.0188,-0.1221 0,-0.17857 0.0421,-0.12627 0.13648,-0.23088 0.17857,-0.35714 0.0499,-0.14967 -0.0592,-0.59595 0,-0.71429 0.0376,-0.0753 0.15195,-0.0987 0.17857,-0.17857 0.0565,-0.16941 -0.0565,-0.36631 0,-0.53572 0.0421,-0.12626 0.13648,-0.23087 0.17857,-0.35714 0.0565,-0.16941 -0.0565,-0.36631 0,-0.53571 0.0266,-0.0799 0.15195,-0.0987 0.17857,-0.17857 0.0753,-0.22588 -0.0753,-0.48841 0,-0.71429 0.0266,-0.0799 0.15195,-0.0987 0.17857,-0.17857 0.0376,-0.11294 -0.0289,-0.24165 0,-0.35714 0.50587,-1.01173 -0.0666,0.26619 0.17857,-0.71429 0.0323,-0.12913 0.14629,-0.22802 0.17858,-0.35714 0.0289,-0.1155 -0.0289,-0.24165 0,-0.35715 0.0323,-0.12912 0.14629,-0.22801 0.17857,-0.35714 0.0577,-0.23098 -0.0577,-0.4833 0,-0.71428 0.0323,-0.12913 0.13648,-0.23088 0.17857,-0.35715 0.0565,-0.1694 -0.0565,-0.3663 0,-0.53571 0.0266,-0.0799 0.14092,-0.10328 0.17857,-0.17857 0.0266,-0.0532 0,-0.11905 0,-0.17857 0,-0.11905 -0.0289,-0.24165 0,-0.35715 0.12947,-0.5179 0.13932,-0.20897 0.35714,-0.53571 0.0942,-0.14131 0.48317,-0.91378 0.53572,-1.07143 0.0188,-0.0565 -0.0188,-0.1221 0,-0.17857 0.0421,-0.12627 0.13648,-0.23088 0.17857,-0.35714 0.0188,-0.0565 -0.0188,-0.12211 0,-0.17858 0.0421,-0.12626 0.13648,-0.23087 0.17857,-0.35714 0.0376,-0.11294 -0.0532,-0.25066 0,-0.35714 0.0376,-0.0753 0.14093,-0.10328 0.17857,-0.17857 0.0266,-0.0532 -0.0266,-0.12533 0,-0.17857 0.0377,-0.0753 0.14093,-0.10328 0.17857,-0.17858 0.0266,-0.0532 -0.0266,-0.12533 0,-0.17857 0.40863,-0.81725 -0.074,0.75776 0.35715,-0.53571 0.0188,-0.0565 -0.0266,-0.12533 0,-0.17857 0.0529,-0.1059 0.30419,-0.25124 0.35714,-0.35715 0.0266,-0.0532 -0.0266,-0.12533 0,-0.17857 0.0171,-0.0342 0.6801,-0.69719 0.71428,-0.71428 0.0532,-0.0266 0.12534,0.0266 0.17858,0 0.0753,-0.0376 0.11904,-0.11905 0.17857,-0.17857 0.13948,-0.13948 0.38162,-0.43299 0.53571,-0.53572 0.11075,-0.0738 0.2464,-0.10474 0.35714,-0.17857 0.0701,-0.0467 0.0987,-0.15195 0.17858,-0.17857 0.11293,-0.0377 0.2442,0.0376 0.35714,0 0.15972,-0.0532 0.20656,-0.28185 0.35714,-0.35714 0.0532,-0.0266 0.11905,0 0.17857,0 0.0595,0 0.13648,-0.0421 0.17857,0 0.0421,0.0421 -0.0421,0.13648 0,0.17857 0.0365,0.0365 0.46492,-0.0354 0.53572,0 0.0753,0.0376 0.10328,0.14092 0.17857,0.17857 0.0532,0.0266 0.12533,-0.0266 0.17857,0 0.0753,0.0376 0.10328,0.14092 0.17857,0.17857 0.0532,0.0266 0.12533,-0.0266 0.17857,0 0.0753,0.0376 0.10328,0.14093 0.17858,0.17857 0.0532,0.0266 0.13648,-0.0421 0.17857,0 0.0421,0.0421 -0.0421,0.13648 0,0.17857 0.0421,0.0421 0.13648,-0.0421 0.17857,0 0.0421,0.0421 -0.0421,0.13648 0,0.17857 0.0421,0.0421 0.13648,-0.0421 0.17857,0 0.0421,0.0421 -0.0421,0.13649 0,0.17858 0.0421,0.0421 0.13648,-0.0421 0.17857,0 0.0842,0.0842 -0.0842,0.27296 0,0.35714 0.36947,0.36947 -0.0144,-0.5646 0.35714,0.17857 0.0266,0.0532 -0.0266,0.12533 0,0.17857 0.0376,0.0753 0.14093,0.10328 0.17858,0.17857 0.0266,0.0532 -0.0421,0.13648 0,0.17857 0.0421,0.0421 0.13648,-0.0421 0.17857,0 0.0421,0.0421 -0.0266,0.12534 0,0.17858 0.10714,0.21428 0.42857,0.32142 0.53571,0.53571 0.0266,0.0532 -0.0266,0.12533 0,0.17857 0.0753,0.15059 0.28185,0.20656 0.35714,0.35714 0.0266,0.0532 0,0.11905 0,0.17858 0.0595,0.11904 0.10475,0.24639 0.17858,0.35714 0.0467,0.07 0.14092,0.10328 0.17857,0.17857 0.0266,0.0532 0,0.11905 0,0.17857 0.0595,0.11905 0.10474,0.2464 0.17857,0.35714 0.0467,0.07 0.15195,0.0987 0.17857,0.17858 0.0376,0.11293 -0.0289,0.24165 0,0.35714 -0.10763,0.3232 0.28928,0.33211 0.35714,0.53571 0.0376,0.11294 -0.0289,0.24165 0,0.35715 0.0323,0.12912 0.11905,0.23809 0.17857,0.35714 0.0595,0.17857 0.14166,0.35114 0.17858,0.53571 0.0233,0.11674 -0.0289,0.24165 0,0.35715 0.0699,0.2796 0.48279,0.80683 0.53571,1.07142 0.035,0.17511 -0.035,0.36061 0,0.53572 0.0261,0.13051 0.12914,0.23356 0.17857,0.35714 0.0699,0.17477 0.10867,0.36095 0.17857,0.53572 0.0494,0.12358 0.15247,0.22662 0.17857,0.35714 0.035,0.1751 -0.035,0.36061 0,0.53571 0.0261,0.13052 0.15247,0.22663 0.17858,0.35715 0.035,0.1751 -0.0294,0.35957 0,0.53571 0.0309,0.18567 0.14762,0.35004 0.17857,0.53571 0.0772,0.46332 -0.0772,0.96526 0,1.42858 0.0309,0.18567 0.14165,0.35113 0.17857,0.53571 0.0233,0.11674 0,0.2381 0,0.35714 0,0.17857 -0.035,0.36061 0,0.53572 0.0261,0.13051 0.15247,0.22663 0.17857,0.35714 0.035,0.1751 -0.035,0.36061 0,0.53571 0.0261,0.13052 0.15247,0.22663 0.17857,0.35715 0.035,0.1751 -0.035,0.36061 0,0.53571 0.0261,0.13052 0.14629,0.22802 0.17857,0.35714 0.0289,0.1155 -0.0289,0.24165 0,0.35715 0.0646,0.25825 0.29258,0.45603 0.35715,0.71428 0.0289,0.1155 -0.0289,0.24165 0,0.35715 0.0323,0.12912 0.14629,0.22801 0.17857,0.35714 0.0289,0.11549 -0.0233,0.24041 0,0.35714 0.0369,0.18458 0.14165,0.35114 0.17857,0.53572 0.0467,0.23347 -0.0578,0.4833 0,0.71428 0.0323,0.12913 0.14629,0.22802 0.17857,0.35714 0.0289,0.1155 -0.0376,0.24421 0,0.35715 0.0266,0.0799 0.15195,0.0987 0.17857,0.17857 0.25772,0.77314 -0.34137,-0.0656 0.17857,0.71428 0.0467,0.07 0.15195,0.0987 0.17857,0.17858 0.0376,0.11293 0,0.23809 0,0.35714 0,0.0595 -0.0266,0.12533 0,0.17857 0.0376,0.0753 0.14093,0.10328 0.17858,0.17857 0.0532,0.10648 -0.0376,0.24421 0,0.35714 0.0421,0.12627 0.13648,0.23088 0.17857,0.35715 0.0376,0.11294 -0.0376,0.2442 0,0.35714 0.0421,0.12627 0.14629,0.22802 0.17857,0.35714 0.0399,0.15943 0,0.68616 0,0.89286 0,0.0595 -0.0188,0.1221 0,0.17857 0.0421,0.12627 0.13648,0.23088 0.17857,0.35714 0.0376,0.11294 -0.0532,0.25067 0,0.35715 0.0376,0.0753 0.14093,0.10328 0.17857,0.17857 0.0266,0.0532 0,0.11905 0,0.17857 0,0.11905 -0.0376,0.2442 0,0.35714 0.0266,0.0799 0.14093,0.10328 0.17857,0.17857 0.0532,0.10648 -0.0532,0.25067 0,0.35715 0.0376,0.0753 0.14093,0.10328 0.17857,0.17857 0.0266,0.0532 0,0.11905 0,0.17857 0,0.11905 -0.0376,0.2442 0,0.35714 0.0266,0.0799 0.14093,0.10328 0.17858,0.17857 0.0532,0.10648 -0.0532,0.25067 0,0.35715 0.0376,0.0753 0.15195,0.0987 0.17857,0.17857 0.0376,0.11294 0,0.23809 0,0.35714 0,0.0595 -0.0266,0.12533 0,0.17857 0.0376,0.0753 0.14092,0.10328 0.17857,0.17857 0.0532,0.10648 -0.0842,0.27297 0,0.35715 0.0421,0.0421 0.13648,-0.0421 0.17857,0 0.0365,0.0365 -0.0354,0.46491 0,0.53571 0.0376,0.0753 0.14093,0.10328 0.17857,0.17857 0.0714,0.14286 -0.0714,0.39286 0,0.53572 0.0377,0.0753 0.14093,0.10328 0.17857,0.17857 0.0354,0.0708 -0.0365,0.49921 0,0.53571 0.0421,0.0421 0.13648,-0.0421 0.17857,0 0.0365,0.0365 -0.0354,0.46492 0,0.53572 0.0376,0.0753 0.14093,0.10328 0.17858,0.17857 0.0714,0.14286 -0.0714,0.39286 0,0.53571 0.0376,0.0753 0.14092,0.10328 0.17857,0.17857 0.0266,0.0532 -0.0421,0.13649 0,0.17858 0.0595,0 0.11905,0 0.17857,0 0.0595,0 0.13648,-0.0421 0.17857,0 0.2381,0.23809 -0.29762,0.17857 0.17857,0.17857 0.0595,0 0.11905,0 0.17857,0 0.0595,0 0.12533,-0.0266 0.17857,0 0.0753,0.0376 0.10328,0.14092 0.17858,0.17857 0.0969,0.0484 0.66542,-0.0489 0.71428,0 0.0421,0.0421 -0.0421,0.13648 0,0.17857 0.0421,0.0421 0.11905,0 0.17857,0 0.0595,0 0.11905,0 0.17857,0 0.71429,0 1.42858,0 2.14286,0 0.12657,0 1.02526,0.0231 1.07143,0 0.0753,-0.0376 0.10328,-0.14093 0.17857,-0.17857 0.11224,-0.0561 0.60205,0.0561 0.71429,0 0.0753,-0.0377 0.10328,-0.14093 0.17857,-0.17857 0.14286,-0.0714 0.39286,0.0714 0.53571,0 0.0753,-0.0376 0.10328,-0.14093 0.17857,-0.17857 0.0532,-0.0266 0.11905,0 0.17858,0 0.0595,0 0.11904,0 0.17857,0 0.35714,0 0.71428,0 1.07143,0 0.1242,0 0.82828,-0.0323 0.89285,0 0.15059,0.0753 0.20656,0.28185 0.35715,0.35714 0.0532,0.0266 0.12533,-0.0266 0.17857,0 0.0753,0.0376 0.10328,0.14092 0.17857,0.17857 0.0532,0.0266 0.12533,-0.0266 0.17857,0 0.0753,0.0377 0.10328,0.14093 0.17857,0.17857 0.0532,0.0266 0.12533,-0.0266 0.17857,0 0.15059,0.0753 0.20656,0.28185 0.35715,0.35714 0.0532,0.0266 0.12533,-0.0266 0.17857,0 0.15058,0.0753 0.20656,0.28185 0.35714,0.35715 0.0532,0.0266 0.12533,-0.0266 0.17857,0 0.15059,0.0753 0.20656,0.28185 0.35714,0.35714 0.0532,0.0266 0.13649,-0.0421 0.17858,0 0.36947,0.36947 -0.5646,-0.0144 0.17857,0.35714 0.0532,0.0266 0.12533,-0.0266 0.17857,0 0.0753,0.0376 0.10328,0.14093 0.17857,0.17857 0.0532,0.0266 0.13648,-0.0421 0.17857,0 0.0421,0.0421 -0.0266,0.12534 0,0.17858 0.37159,0.74317 -0.0123,-0.1909 0.35714,0.17857 0.0421,0.0421 -0.0421,0.13648 0,0.17857 0.0421,0.0421 0.12534,-0.0266 0.17858,0 0.15058,0.0753 0.20655,0.28185 0.35714,0.35714 0.10648,0.0532 0.27296,-0.0842 0.35714,0 0.0421,0.0421 -0.0421,0.13648 0,0.17857 0.0421,0.0421 0.11905,0 0.17857,0 0,0.0595 -0.0421,0.13648 0,0.17857 0.0842,0.0842 0.27297,-0.0842 0.35715,0 0.0421,0.0421 -0.0421,0.13649 0,0.17858 0.0842,0.0842 0.25066,-0.0532 0.35714,0 0.0753,0.0376 0.10328,0.14092 0.17857,0.17857 0.0532,0.0266 0.12533,-0.0266 0.17857,0 0.0753,0.0376 0.10328,0.14092 0.17857,0.17857 0.10648,0.0532 0.27297,-0.0842 0.35715,0 0.0421,0.0421 -0.0421,0.13648 0,0.17857 0.0842,0.0842 0.27296,-0.0842 0.35714,0 0.0421,0.0421 -0.0421,0.13648 0,0.17857 0.0842,0.0842 0.27296,-0.0842 0.35714,0 0.0421,0.0421 -0.0421,0.13648 0,0.17857 0.0842,0.0842 0.25067,-0.0532 0.35714,0 0.0753,0.0376 0.10328,0.14093 0.17858,0.17857 0.0532,0.0266 0.12533,-0.0266 0.17857,0 0.0753,0.0376 0.10328,0.14093 0.17857,0.17858 0.0532,0.0266 0.12533,-0.0266 0.17857,0 0.0753,0.0376 0.10328,0.14092 0.17857,0.17857 0.10648,0.0532 0.25067,-0.0532 0.35714,0 0.0753,0.0376 0.10328,0.14092 0.17858,0.17857 0.10648,0.0532 0.25066,-0.0532 0.35714,0 0.0753,0.0376 0.10328,0.14092 0.17857,0.17857 0.0532,0.0266 0.12533,-0.0266 0.17857,0 0.0753,0.0377 0.10328,0.14093 0.17857,0.17857 0.0543,0.0272 0.4553,0 0.53572,0 0.0595,0 0.11905,0 0.17857,0 0.0595,0 0.12533,0.0266 0.17857,0 0.0753,-0.0376 0.10328,-0.14092 0.17857,-0.17857 0.10648,-0.0532 0.25067,0.0532 0.35714,0 0.0753,-0.0376 0.10328,-0.14093 0.17858,-0.17857 0.14285,-0.0714 0.39285,0.0714 0.53571,0 0.0753,-0.0377 0.10328,-0.14093 0.17857,-0.17857 0.10648,-0.0532 0.25067,0.0532 0.35714,0 0.0753,-0.0376 0.10328,-0.14093 0.17858,-0.17857 0.0532,-0.0266 0.12533,0.0266 0.17857,0 0.15058,-0.0753 0.20656,-0.28185 0.35714,-0.35715 0.0532,-0.0266 0.1221,0.0188 0.17857,0 1.29347,-0.43115 -0.28154,0.0515 0.53572,-0.35714 0.0532,-0.0266 0.12533,0.0266 0.17857,0 0.0753,-0.0376 0.10328,-0.14093 0.17857,-0.17857 0.0532,-0.0266 0.13648,0.0421 0.17857,0 0.0421,-0.0421 -0.0421,-0.13648 0,-0.17857 0.0421,-0.0421 0.12533,0.0266 0.17857,0 0.0753,-0.0376 0.10328,-0.14093 0.17857,-0.17857 0.0532,-0.0266 0.13648,0.0421 0.17857,0 0.0421,-0.0421 -0.0266,-0.12534 0,-0.17858 0.0569,-0.11374 0.75255,-0.75254 0.89286,-0.89285 0.29762,-0.29762 0.59524,-0.59524 0.89286,-0.89286 0.11905,-0.11905 0.22245,-0.25613 0.35714,-0.35714 0.10648,-0.0799 0.25067,-0.0987 0.35714,-0.17857 0.13469,-0.10102 0.22246,-0.25613 0.35715,-0.35715 0.10648,-0.0799 0.25066,-0.0987 0.35714,-0.17857 0.77237,-0.77237 -0.0473,-0.028 0.71429,-0.53571 0.24566,-0.16378 0.18365,-0.27549 0.35714,-0.53572 0.0467,-0.07 0.11905,-0.11904 0.17857,-0.17857 0.0595,-0.0595 0.10853,-0.13188 0.17857,-0.17857 0.11075,-0.0738 0.2464,-0.10474 0.35714,-0.17857 0.44419,-0.29612 0.0205,-0.041 0.17858,-0.35714 0.37158,-0.74318 -0.0123,0.19089 0.35714,-0.17858 0.0421,-0.0421 -0.0421,-0.13648 0,-0.17857 0.0421,-0.0421 0.12533,0.0266 0.17857,0 0.0753,-0.0376 0.10328,-0.14092 0.17857,-0.17857 0.10648,-0.0532 0.25067,0.0532 0.35714,0 0.0753,-0.0376 0.10328,-0.14092 0.17858,-0.17857 0.0532,-0.0266 0.12533,0.0266 0.17857,0 0.0753,-0.0376 0.10328,-0.14093 0.17857,-0.17857 0.0532,-0.0266 0.12533,0.0266 0.17857,0 0.0753,-0.0377 0.10328,-0.14093 0.17857,-0.17857 0.0532,-0.0266 0.11905,0 0.17857,0 0.0595,-0.0595 0.10328,-0.14093 0.17857,-0.17857 0.10648,-0.0532 0.25067,0.0532 0.35715,0 0.0753,-0.0376 0.10328,-0.14093 0.17857,-0.17858 0.11224,-0.0561 0.60205,0.0561 0.71428,0 0.0753,-0.0376 0.10328,-0.14092 0.17858,-0.17857 0.0708,-0.0354 0.4992,0.0365 0.53571,0 0.0421,-0.0421 -0.0421,-0.13648 0,-0.17857 0.0421,-0.0421 0.11905,0 0.17857,0 0.12421,0 0.82828,-0.0323 0.89286,0 0.0753,0.0377 0.10328,0.14093 0.17857,0.17857 0.14286,0.0714 0.39286,-0.0714 0.53571,0 0.0753,0.0376 0.10328,0.14093 0.17858,0.17857 0.14285,0.0714 0.39285,-0.0714 0.53571,0 0.0753,0.0376 0.10328,0.14093 0.17857,0.17858 0.10648,0.0532 0.25067,-0.0532 0.35714,0 0.0753,0.0376 0.10328,0.14092 0.17858,0.17857 0.10648,0.0532 0.25066,-0.0532 0.35714,0 0.59225,0.59224 -0.16836,-0.0842 0.35714,0.17857 0.0753,0.0376 0.10328,0.14092 0.17857,0.17857 0.10648,0.0532 0.25067,-0.0532 0.35715,0 0.0753,0.0377 0.10328,0.14093 0.17857,0.17857 0.10648,0.0532 0.27296,-0.0842 0.35714,0 0.0421,0.0421 -0.0421,0.13648 0,0.17857 0.0421,0.0421 0.13648,-0.0421 0.17857,0 0.0421,0.0421 -0.0266,0.12533 0,0.17857 0.0376,0.0753 0.14093,0.10328 0.17857,0.17858 0.0532,0.10648 -0.0842,0.27296 0,0.35714 0.0421,0.0421 0.13648,-0.0421 0.17857,0 0.0421,0.0421 -0.0266,0.12533 0,0.17857 0.0377,0.0753 0.11905,0.11905 0.17858,0.17857 0.0595,0.0595 0.10328,0.14093 0.17857,0.17857 0.0532,0.0266 0.13648,-0.0421 0.17857,0 0.0421,0.0421 -0.0421,0.13648 0,0.17857 0.0421,0.0421 0.13648,-0.0421 0.17857,0 0.0421,0.0421 -0.0421,0.13649 0,0.17858 0.0421,0.0421 0.13648,-0.0421 0.17857,0 0.0421,0.0421 -0.0421,0.13648 0,0.17857 0.0421,0.0421 0.13648,-0.0421 0.17857,0 0.0421,0.0421 -0.0421,0.13648 0,0.17857 0.0421,0.0421 0.13648,-0.0421 0.17857,0 0.0421,0.0421 -0.0421,0.13648 0,0.17857 0.0421,0.0421 0.12534,-0.0266 0.17858,0 0.15058,0.0753 0.20655,0.28185 0.35714,0.35714 0.0532,0.0266 0.13648,-0.0421 0.17857,0 0.0421,0.0421 -0.0421,0.13648 0,0.17857 0.0421,0.0421 0.13648,-0.0421 0.17857,0 0.0421,0.0421 -0.0421,0.13649 0,0.17858 0.36947,0.36947 -0.0144,-0.5646 0.35714,0.17857 0.0266,0.0532 -0.0421,0.13648 0,0.17857 0.0421,0.0421 0.12534,-0.0266 0.17858,0 0.0753,0.0376 0.11904,0.11905 0.17857,0.17857 0.0595,0.0595 0.14092,0.10328 0.17857,0.17857 0.0266,0.0532 -0.0421,0.13648 0,0.17857 0.0421,0.0421 0.13648,-0.0421 0.17857,0 0.0421,0.0421 -0.0421,0.13648 0,0.17857 0.0421,0.0421 0.13648,-0.0421 0.17857,0 0.0421,0.0421 -0.0266,0.12534 0,0.17858 0.0753,0.15058 0.28185,0.20655 0.35714,0.35714 0.0266,0.0532 -0.0421,0.13648 0,0.17857 0.0421,0.0421 0.12534,-0.0266 0.17858,0 0.74317,0.37159 -0.1909,-0.0123 0.17857,0.35714 0.0421,0.0421 0.13648,-0.0421 0.17857,0 0.0421,0.0421 -0.0266,0.12533 0,0.17857 0.0753,0.15059 0.28185,0.20656 0.35714,0.35715 0.0266,0.0532 -0.0421,0.13648 0,0.17857 0.0421,0.0421 0.13648,-0.0421 0.17857,0 0.0421,0.0421 -0.0266,0.12533 0,0.17857 0.0753,0.15058 0.28185,0.20656 0.35715,0.35714 0.0266,0.0532 -0.0421,0.13648 0,0.17857 0.0421,0.0421 0.13648,-0.0421 0.17857,0 0.0421,0.0421 -0.0266,0.12534 0,0.17858 0.0376,0.0753 0.14092,0.10327 0.17857,0.17857 0.0532,0.10648 -0.0532,0.25066 0,0.35714 0.0377,0.0753 0.14092,0.10328 0.17857,0.17857 0.0266,0.0532 -0.0266,0.12533 0,0.17857 0.0377,0.0753 0.14093,0.10328 0.17857,0.17857 0.0532,0.10648 -0.0532,0.25067 0,0.35715 0.0376,0.0753 0.14093,0.10328 0.17857,0.17857 0.0266,0.0532 -0.0421,0.13648 0,0.17857 0.0421,0.0421 0.15195,-0.0532 0.17857,0 0.0714,0.14286 -0.0714,0.39286 0,0.53571 0.0377,0.0753 0.14093,0.10328 0.17858,0.17858 0.0266,0.0532 -0.0266,0.12533 0,0.17857 0.0376,0.0753 0.14092,0.10328 0.17857,0.17857 0.0266,0.0532 -0.0266,0.12533 0,0.17857 0.0376,0.0753 0.14092,0.10328 0.17857,0.17857 0.0266,0.0532 -0.0266,0.12533 0,0.17857 0.0377,0.0753 0.14092,0.10328 0.17857,0.17857 0.0266,0.0532 -0.0266,0.12534 0,0.17858 0.0753,0.15058 0.28185,0.20655 0.35714,0.35714 0.0266,0.0532 -0.0266,0.12533 0,0.17857 0.0753,0.15058 0.28185,0.20656 0.35715,0.35714 0.0266,0.0532 -0.0188,0.12211 0,0.17857 0.0421,0.12627 0.13648,0.23088 0.17857,0.35715 0.0188,0.0565 -0.0266,0.12533 0,0.17857 0.0376,0.0753 0.14092,0.10328 0.17857,0.17857 0.0266,0.0532 -0.0266,0.12533 0,0.17857 0.0377,0.0753 0.14092,0.10328 0.17857,0.17857 0.0266,0.0532 -0.0266,0.12533 0,0.17857 0.0753,0.15059 0.28185,0.20656 0.35714,0.35715 0.0266,0.0532 -0.0266,0.12533 0,0.17857 0.0377,0.0753 0.14093,0.10328 0.17857,0.17857 0.0266,0.0532 -0.0266,0.12533 0,0.17857 0.0377,0.0753 0.14093,0.10328 0.17858,0.17857 0.0532,0.10648 -0.0842,0.27297 0,0.35715 0.0421,0.0421 0.13648,-0.0421 0.17857,0 0.0421,0.0421 -0.0266,0.12533 0,0.17857 0.0376,0.0753 0.14092,0.10328 0.17857,0.17857 0.0266,0.0532 -0.0266,0.12533 0,0.17857 0.0377,0.0753 0.14092,0.10328 0.17857,0.17857 0.0532,0.10648 -0.0842,0.27296 0,0.35714 0.0421,0.0421 0.13648,-0.0421 0.17857,0 0.0842,0.0842 -0.0532,0.25067 0,0.35715 0.0376,0.0753 0.14093,0.10328 0.17857,0.17857 0.0532,0.10648 -0.0842,0.27296 0,0.35714 0.0421,0.0421 0.13648,-0.0421 0.17857,0 0.0421,0.0421 -0.0266,0.12533 0,0.17857 0.0377,0.0753 0.14093,0.10328 0.17858,0.17857 0.0532,0.10648 -0.0842,0.27297 0,0.35715 0.0421,0.0421 0.13648,-0.0421 0.17857,0 0.0842,0.0842 -0.0842,0.27296 0,0.35714 0.0421,0.0421 0.13648,-0.0421 0.17857,0 0.0421,0.0421 -0.0421,0.13648 0,0.17857 0.0421,0.0421 0.13648,-0.0421 0.17857,0 0.0421,0.0421 -0.0266,0.12533 0,0.17857 0.0377,0.0753 0.14093,0.10328 0.17857,0.17857 0.0266,0.0532 -0.0421,0.13649 0,0.17858 0.0421,0.0421 0.13648,-0.0421 0.17857,0 0.0421,0.0421 -0.0421,0.13648 0,0.17857 0.0421,0.0421 0.13648,-0.0421 0.17857,0 0.0421,0.0421 -0.0421,0.13648 0,0.17857 0.0421,0.0421 0.13649,-0.0421 0.17858,0 0.0842,0.0842 -0.0842,0.27296 0,0.35714 0.0421,0.0421 0.13648,-0.0421 0.17857,0 0.0842,0.0842 -0.0532,0.25066 0,0.35714 0.0376,0.0753 0.14092,0.10328 0.17857,0.17858 0.0532,0.10648 -0.0842,0.27296 0,0.35714 0.0421,0.0421 0.13648,-0.0421 0.17857,0 0.0421,0.0421 -0.0266,0.12533 0,0.17857 0.0377,0.0753 0.14093,0.10328 0.17857,0.17857 0.0266,0.0532 -0.0421,0.13648 0,0.17857 0.36947,0.36947 -0.0144,-0.5646 0.35714,0.17857 0.0266,0.0532 -0.0266,0.12534 0,0.17858 0.0753,0.15058 0.28186,0.20655 0.35715,0.35714 0.0266,0.0532 -0.0421,0.13648 0,0.17857 0.0421,0.0421 0.12533,-0.0266 0.17857,0 0.74317,0.37159 -0.1909,-0.0123 0.17857,0.35714 0.0421,0.0421 0.13648,-0.0421 0.17857,0 0.0421,0.0421 0,0.11905 0,0.17857 0.0595,0 0.13648,-0.0421 0.17857,0 0.0421,0.0421 -0.0266,0.12534 0,0.17858 0.0377,0.0753 0.14093,0.10327 0.17857,0.17857 0.0266,0.0532 -0.0266,0.12533 0,0.17857 0.0753,0.15058 0.28186,0.20656 0.35715,0.35714 0.0532,0.10648 -0.0532,0.25066 0,0.35714 0.0376,0.0753 0.14092,0.10328 0.17857,0.17858 0.0266,0.0532 -0.0266,0.12533 0,0.17857 0.0377,0.0753 0.14092,0.10328 0.17857,0.17857 0.0266,0.0532 0,0.11905 0,0.17857 0.0595,0.0595 0.14093,0.10328 0.17857,0.17857 0.0266,0.0532 -0.0421,0.13648 0,0.17857 0.0421,0.0421 0.13648,-0.0421 0.17857,0 0.0842,0.0842 -0.0842,0.27297 0,0.35715 0.0421,0.0421 0.13648,-0.0421 0.17857,0 0.0421,0.0421 -0.0266,0.12533 0,0.17857 0.0377,0.0753 0.14093,0.10328 0.17858,0.17857 0.0266,0.0532 -0.0421,0.13648 0,0.17857 0.36947,0.36947 -0.0145,-0.5646 0.35714,0.17857 0.0266,0.0532 -0.0421,0.13648 0,0.17857 0.0421,0.0421 0.12533,-0.0266 0.17857,0 0.15059,0.0753 0.20656,0.28185 0.35714,0.35715 0.0532,0.0266 0.12533,-0.0266 0.17857,0 0.0753,0.0376 0.10853,0.13187 0.17858,0.17857 0.11074,0.0738 0.24639,0.10474 0.35714,0.17857 0.07,0.0467 0.10328,0.14092 0.17857,0.17857 0.0532,0.0266 0.12533,-0.0266 0.17857,0 0.15059,0.0753 0.19743,0.3039 0.35714,0.35714 0.11294,0.0376 0.24421,-0.0376 0.35715,0 0.0799,0.0266 0.10328,0.14093 0.17857,0.17857 0.0532,0.0266 0.12533,-0.0266 0.17857,0 0.0753,0.0376 0.10328,0.14093 0.17857,0.17858 0.0532,0.0266 0.12533,-0.0266 0.17857,0 0.0753,0.0376 0.10328,0.14092 0.17857,0.17857 0.0532,0.0266 0.12534,-0.0266 0.17858,0 0.0753,0.0376 0.10328,0.14092 0.17857,0.17857 0.0532,0.0266 0.12533,-0.0266 0.17857,0 0.0753,0.0376 0.10328,0.14092 0.17857,0.17857 0.0532,0.0266 0.12533,-0.0266 0.17857,0 0.0753,0.0377 0.10328,0.14093 0.17857,0.17857 0.0532,0.0266 0.12533,-0.0266 0.17857,0 0.0753,0.0377 0.10328,0.14093 0.17858,0.17857 0.10648,0.0532 0.25066,-0.0532 0.35714,0 0.0753,0.0376 0.10328,0.14093 0.17857,0.17857 0.047,0.0235 0.62091,0 0.71429,0 0.53571,0 1.07142,0 1.60714,0 0.0934,0 0.66733,-0.0235 0.71428,0 0.0753,0.0376 0.10328,0.14093 0.17858,0.17858 0.0646,0.0323 0.76865,0 0.89285,0 0.0595,0 0.13648,-0.0421 0.17857,0 0.0421,0.0421 -0.0421,0.13648 0,0.17857 0.0421,0.0421 0.11905,0 0.17858,0 0.16818,0 0.79127,-0.0339 0.89285,0 0.0799,0.0266 0.10328,0.14092 0.17857,0.17857 0.11224,0.0561 0.60205,-0.0561 0.71429,0 0.0532,0.0266 -0.0421,0.13648 0,0.17857 0.0489,0.0489 0.61741,-0.0484 0.71429,0 0.0753,0.0377 0.10328,0.14093 0.17857,0.17857 0.10648,0.0532 0.27296,-0.0842 0.35714,0 0.0421,0.0421 -0.0421,0.13648 0,0.17857 0.0893,0.0893 0.44643,-0.0893 0.53571,0 0.0421,0.0421 -0.0421,0.13648 0,0.17857 0.043,0.043 0.67132,-0.043 0.71429,0 0.0421,0.0421 -0.0421,0.13649 0,0.17858 0.0842,0.0842 0.27296,-0.0842 0.35714,0 0.0421,0.0421 -0.0421,0.13648 0,0.17857 0.0842,0.0842 0.25067,-0.0532 0.35715,0 0.0753,0.0376 0.10328,0.14092 0.17857,0.17857 0.0532,0.0266 0.12533,-0.0266 0.17857,0 0.0753,0.0376 0.10328,0.14092 0.17857,0.17857 0.0532,0.0266 0.13648,-0.0421 0.17857,0 0.0421,0.0421 -0.0421,0.13648 0,0.17857 0.0421,0.0421 0.13648,-0.0421 0.17857,0 0.0421,0.0421 -0.0421,0.13648 0,0.17857 0.0421,0.0421 0.12533,-0.0266 0.17857,0 0.0753,0.0376 0.10328,0.14093 0.17858,0.17857 0.0532,0.0266 0.13648,-0.0421 0.17857,0 0.0421,0.0421 -0.0266,0.12534 0,0.17858 0.0376,0.0753 0.11905,0.11904 0.17857,0.17857 0.0595,0.0595 0.10328,0.14092 0.17857,0.17857 0.0532,0.0266 0.13648,-0.0421 0.17857,0 0.0421,0.0421 -0.0266,0.12533 0,0.17857 0.0237,0.0474 0.4883,0.51201 0.53572,0.53571 0.0532,0.0266 0.13648,-0.0421 0.17857,0 0.0421,0.0421 -0.0421,0.13649 0,0.17858 0.0421,0.0421 0.12533,-0.0266 0.17857,0 0.0753,0.0376 0.10328,0.14092 0.17857,0.17857 0.0532,0.0266 0.13648,-0.0421 0.17857,0 0.0421,0.0421 -0.0421,0.13648 0,0.17857 0.0842,0.0842 0.25067,-0.0532 0.35714,0 0.0753,0.0376 0.10328,0.14092 0.17858,0.17857 0.10648,0.0532 0.27296,-0.0842 0.35714,0 0.0421,0.0421 -0.0421,0.13648 0,0.17857 0.0489,0.0489 0.61741,-0.0484 0.71428,0 0.0753,0.0377 0.10328,0.14093 0.17858,0.17857 0.10648,0.0532 0.25066,-0.0532 0.35714,0 0.59225,0.59225 -0.16836,-0.0842 0.35714,0.17857 0.0753,0.0376 0.10328,0.14093 0.17857,0.17858 0.0532,0.0266 0.12533,-0.0266 0.17857,0 0.0753,0.0376 0.10328,0.14092 0.17858,0.17857 0.10648,0.0532 0.2442,-0.0376 0.35714,0 0.12627,0.0421 0.23087,0.13648 0.35714,0.17857 0.11294,0.0376 0.24421,-0.0377 0.35714,0 0.12627,0.0421 0.23088,0.13648 0.35715,0.17857 0.0565,0.0188 0.11905,0 0.17857,0 0.11905,0 0.2442,-0.0376 0.35714,0 0.0799,0.0266 0.0987,0.15195 0.17857,0.17857 0.11294,0.0377 0.24421,-0.0376 0.35715,0 0.0799,0.0266 0.0987,0.15195 0.17857,0.17857 0.11294,0.0376 0.2442,-0.0376 0.35714,0 0.0799,0.0266 0.0987,0.15195 0.17857,0.17857 0.11294,0.0376 0.2381,0 0.35714,0 0.0595,0 0.12534,-0.0266 0.17858,0 0.0753,0.0376 0.0987,0.15196 0.17857,0.17858 0.0817,0.0272 0.63482,-0.0397 0.71428,0 0.0753,0.0376 0.0987,0.15195 0.17857,0.17857 0.10159,0.0339 0.72468,0 0.89286,0 0.59524,0 1.19048,0 1.78572,0 0.59523,0 1.19047,0 1.78571,0 0.0934,0 0.66733,0.0235 0.71429,0 0.0753,-0.0376 0.10328,-0.14093 0.17857,-0.17857 0.0462,-0.0231 0.94485,0 1.07143,0 0.0595,0 0.12533,0.0266 0.17857,0 0.0753,-0.0376 0.10328,-0.14093 0.17857,-0.17858 0.10648,-0.0532 0.25066,0.0532 0.35714,0 0.0753,-0.0376 0.10328,-0.14092 0.17857,-0.17857 0.0708,-0.0354 0.49921,0.0365 0.53572,0 0.0421,-0.0421 -0.0421,-0.13648 0,-0.17857 0.0842,-0.0842 0.25066,0.0532 0.35714,0 0.0753,-0.0376 0.10328,-0.14092 0.17857,-0.17857 0.10648,-0.0532 0.27297,0.0842 0.35714,0 0.0421,-0.0421 -0.0421,-0.13648 0,-0.17857 0.0842,-0.0842 0.25067,0.0532 0.35715,0 0.0753,-0.0377 0.10328,-0.14093 0.17857,-0.17857 0.0532,-0.0266 0.12533,0.0266 0.17857,0 0.15059,-0.0753 0.20656,-0.28185 0.35714,-0.35715 0.0532,-0.0266 0.12534,0.0266 0.17857,0 0.0753,-0.0376 0.10328,-0.14092 0.17858,-0.17857 0.0532,-0.0266 0.12533,0.0266 0.17857,0 0.0753,-0.0376 0.10328,-0.14092 0.17857,-0.17857 0.0532,-0.0266 0.1221,0.0188 0.17857,0 0.12627,-0.0421 0.23087,-0.13648 0.35714,-0.17857 0.0565,-0.0188 0.12534,0.0266 0.17857,0 0.15059,-0.0753 0.19743,-0.3039 0.35715,-0.35714 0.11294,-0.0376 0.2442,0.0376 0.35714,0 0.15894,-0.053 0.37677,-0.48274 0.53571,-0.53572 0.11294,-0.0376 0.24421,0.0376 0.35715,0 0.0799,-0.0266 0.10328,-0.14092 0.17857,-0.17857 0.0532,-0.0266 0.12533,0.0266 0.17857,0 0.0753,-0.0376 0.0987,-0.15195 0.17857,-0.17857 0.11294,-0.0376 0.24421,0.0377 0.35714,0 0.0799,-0.0266 0.10328,-0.14093 0.17858,-0.17857 0.10648,-0.0532 0.2442,0.0376 0.35714,0 0.12627,-0.0421 0.23087,-0.13648 0.35714,-0.17857 0.11294,-0.0376 0.25067,0.0532 0.35714,0 0.0753,-0.0376 0.10328,-0.14093 0.17858,-0.17857 0.0532,-0.0266 0.12533,0.0266 0.17857,0 0.0753,-0.0376 0.10328,-0.14093 0.17857,-0.17858 0.10648,-0.0532 0.25066,0.0532 0.35714,0 0.15059,-0.0753 0.20656,-0.28185 0.35714,-0.35714 0.0532,-0.0266 0.12534,0.0266 0.17858,0 0.0753,-0.0376 0.10328,-0.14092 0.17857,-0.17857 0.0532,-0.0266 0.12533,0.0266 0.17857,0 0.74317,-0.37159 -0.1909,0.0123 0.17857,-0.35714 0.0421,-0.0421 0.13648,0.0421 0.17857,0 0.0421,-0.0421 -0.0421,-0.13648 0,-0.17857 0.0421,-0.0421 0.13648,0.0421 0.17857,0 0.0421,-0.0421 -0.0421,-0.13649 0,-0.17858 0.0421,-0.0421 0.11905,0 0.17857,0 0,-0.0595 -0.0266,-0.12533 0,-0.17857 0.0377,-0.0753 0.11905,-0.11904 0.17858,-0.17857 0.0595,-0.0595 0.11904,-0.11905 0.17857,-0.17857 0.23809,-0.2381 0.47619,-0.47619 0.71428,-0.71429 0.10503,-0.10502 0.67294,-0.63159 0.71429,-0.71428 0.0266,-0.0532 -0.0421,-0.13648 0,-0.17857 0.0421,-0.0421 0.13648,0.0421 0.17857,0 0.0365,-0.0365 -0.0354,-0.46491 0,-0.53572 0.0377,-0.0753 0.14093,-0.10328 0.17857,-0.17857 0.0532,-0.10648 -0.0842,-0.27296 0,-0.35714 0.0421,-0.0421 0.13648,0.0421 0.17857,0 0.0421,-0.0421 -0.0266,-0.12533 0,-0.17857 0.0377,-0.0753 0.14093,-0.10328 0.17857,-0.17857 0.0266,-0.0532 -0.0421,-0.13649 0,-0.17858 0.0421,-0.0421 0.13649,0.0421 0.17858,0 0.0421,-0.0421 -0.0266,-0.12533 0,-0.17857 0.082,-0.16411 0.66912,-0.57878 0.71428,-0.71428 0.0376,-0.11294 -0.066,-0.25809 0,-0.35715 0.22781,-0.3417 0.30791,-0.0154 0.53572,-0.35714 0.0738,-0.11074 0.10474,-0.2464 0.17857,-0.35714 0.0467,-0.07 0.11905,-0.11905 0.17857,-0.17857 0.17857,-0.17857 0.35714,-0.35715 0.53571,-0.53572 0.094,-0.094 0.48803,-0.44034 0.53572,-0.53571 0.0266,-0.0532 -0.0266,-0.12533 0,-0.17857 0.0376,-0.0753 0.11905,-0.11905 0.17857,-0.17857 0.0595,-0.0595 0.10328,-0.14093 0.17857,-0.17858 0.0532,-0.0266 0.13648,0.0421 0.17857,0 0.0421,-0.0421 -0.0266,-0.12533 0,-0.17857 0.10714,-0.21428 0.42857,-0.32143 0.53572,-0.53571 0.0266,-0.0532 -0.0421,-0.13648 0,-0.17857 0.0421,-0.0421 0.13648,0.0421 0.17857,0 0.0421,-0.0421 -0.0266,-0.12533 0,-0.17857 0.0477,-0.0954 0.4417,-0.44171 0.53571,-0.53572 0.40944,-0.40943 -0.0753,0.11294 0.35714,-0.53571 0.0934,-0.14009 0.26376,-0.21706 0.35715,-0.35715 0.0738,-0.11074 0.10474,-0.24639 0.17857,-0.35714 0.0467,-0.07 0.13188,-0.10853 0.17857,-0.17857 0.14766,-0.22149 0.19742,-0.50133 0.35714,-0.71429 0.15153,-0.20203 0.39563,-0.32559 0.53572,-0.53571 0.0738,-0.11075 0.11905,-0.2381 0.17857,-0.35714 0.11905,-0.11905 0.25613,-0.22246 0.35714,-0.35715 0.15972,-0.21295 0.19743,-0.50132 0.35714,-0.71428 0.10102,-0.13469 0.25613,-0.22246 0.35715,-0.35714 0.0799,-0.10648 0.0987,-0.25067 0.17857,-0.35715 0.10101,-0.13468 0.25613,-0.22245 0.35714,-0.35714 0.15972,-0.21296 0.19743,-0.50133 0.35714,-0.71429 0.10102,-0.13468 0.25613,-0.22245 0.35715,-0.35714 0.0799,-0.10648 0.11905,-0.23809 0.17857,-0.35714 0.11905,-0.2381 0.25828,-0.46713 0.35714,-0.71429 0.0699,-0.17477 0.10867,-0.36094 0.17857,-0.53571 0.16328,-0.40819 0.28417,-0.47361 0.53572,-0.89286 0.13696,-0.22826 0.23809,-0.47619 0.35714,-0.71428 0.0595,-0.11905 0.0987,-0.25067 0.17857,-0.35715 0.10102,-0.13468 0.25613,-0.22245 0.35714,-0.35714 0.15972,-0.21296 0.22019,-0.48602 0.35715,-0.71429 0.11042,-0.18403 0.24672,-0.35168 0.35714,-0.53571 0.0685,-0.11413 0.0987,-0.25066 0.17857,-0.35714 0.10102,-0.13469 0.25613,-0.22246 0.35714,-0.35715 0.15972,-0.21295 0.19743,-0.50132 0.35715,-0.71428 0.10101,-0.13469 0.25613,-0.22246 0.35714,-0.35714 0.15972,-0.21296 0.19742,-0.50133 0.35714,-0.71429 0.20203,-0.26937 0.51226,-0.44491 0.71429,-0.71429 0.0799,-0.10648 0.0987,-0.25066 0.17857,-0.35714 0.10102,-0.13469 0.2381,-0.23809 0.35714,-0.35714 0.11905,-0.11905 0.22246,-0.25613 0.35715,-0.35714 0.10648,-0.0799 0.26302,-0.0845 0.35714,-0.17858 0.0941,-0.0941 0.10474,-0.24639 0.17857,-0.35714 0.0467,-0.07 0.11905,-0.11905 0.17857,-0.17857 0.11905,-0.11905 0.2381,-0.2381 0.35714,-0.35714 0.14032,-0.14032 0.77912,-0.83599 0.89286,-0.89286 0.0532,-0.0266 0.13648,0.0421 0.17857,0 0.0421,-0.0421 -0.0421,-0.13648 0,-0.17857 0.0421,-0.0421 0.13649,0.0421 0.17857,0 0.0421,-0.0421 -0.0421,-0.13648 0,-0.17857 0.0421,-0.0421 0.13649,0.0421 0.17858,0 0.0421,-0.0421 -0.0421,-0.13648 0,-0.17857 0.0421,-0.0421 0.13648,0.0421 0.17857,0 0.0421,-0.0421 -0.0421,-0.13649 0,-0.17858 0.0421,-0.0421 0.12533,0.0266 0.17857,0 0.0753,-0.0376 0.11905,-0.11904 0.17857,-0.17857 0.0595,-0.0595 0.11905,-0.11904 0.17857,-0.17857 0.094,-0.094 0.48803,-0.44034 0.53572,-0.53571 0.0266,-0.0532 -0.0421,-0.13648 0,-0.17857 0.0421,-0.0421 0.11904,0 0.17857,0 0.26275,0 0.22066,-0.0421 0,0.17857"
       id="path4196"
       inkscape:connector-curvature="0" />
    <text
       xml:space="preserve"
       style="font-style:normal;font-weight:normal;font-size:40px;line-height:125%;font-family:sans-serif;letter-spacing:0px;word-spacing:0px;fill:#000000;fill-opacity:1;stroke:none;stroke-width:1px;stroke-linecap:butt;stroke-linejoin:miter;stroke-opacity:1"
       x="245.17857"
       y="175.21935"
       id="text4202"
       sodipodi:linespacing="125%"><tspan
         sodipodi:role="line"
         id="tspan4204"
         x="245.17857"
         y="175.21935"></tspan></text>
    <path
       style="fill:none;fill-rule:evenodd;stroke:#000000;stroke-width:1px;stroke-linecap:butt;stroke-linejoin:miter;stroke-opacity:1"
       d="m 246.07143,173.07649 c 0.11905,0.23809 0.25828,0.46713 0.35714,0.71428 0.0371,0.0928 0,0.5661 0,0.71429 0,0.65476 0,1.30952 0,1.96429 0,0.35714 0,0.71428 0,1.07142 0,0.11905 0,0.2381 0,0.35715 0,0.0595 0.0188,0.1221 0,0.17857 -0.0421,0.12627 -0.13648,0.23087 -0.17857,0.35714 -0.0386,0.1157 0,0.74666 0,0.89286 0,0.12331 -0.0272,0.65999 0,0.71428 0.0377,0.0753 0.10328,0.14093 0.17857,0.17858 0.0532,0.0266 0.11905,0 0.17857,0 0.0595,0 0.12534,0.0266 0.17857,0 0.0827,-0.0413 0.60926,-0.60926 0.71429,-0.71429"
       id="path4206"
       inkscape:connector-curvature="0" />
    <path
       style="fill:none;fill-rule:evenodd;stroke:#000000;stroke-width:1px;stroke-linecap:butt;stroke-linejoin:miter;stroke-opacity:1"
       d="m 244.82143,176.82649 c 0.41667,0 0.83333,0 1.25,0 0.11905,0 0.24165,-0.0289 0.35714,0 0.12913,0.0323 0.23088,0.13648 0.35714,0.17857 0.17111,0.057 0.72743,-0.0551 0.89286,0 0.0799,0.0266 0.0987,0.15195 0.17857,0.17857 0.096,0.032 0.5631,0 0.71429,0"
       id="path4208"
       inkscape:connector-curvature="0" />
    <path
       style="fill:none;fill-rule:evenodd;stroke:#000000;stroke-width:1px;stroke-linecap:butt;stroke-linejoin:miter;stroke-opacity:1"
       d="M 85.535714,92.540774 C 85.357143,92.778869 85.178572,93.016965 85,93.25506 c -0.05952,0 -0.136482,-0.04209 -0.178571,0 -0.04209,0.04209 0.02662,0.125332 0,0.178571 -0.03765,0.07529 -0.140926,0.103279 -0.178572,0.178572 -0.02309,0.04617 0,0.944856 0,1.071428 0,0.08042 -0.02717,0.481369 0,0.535715 0.03765,0.07529 0.140926,0.103279 0.178572,0.178571 0.02662,0.05324 -0.02662,0.125332 0,0.178571 0.07529,0.150585 0.28185,0.206559 0.357143,0.357143 0.02662,0.05324 -0.02662,0.125332 0,0.178572 0.03765,0.07529 0.119047,0.119047 0.178571,0.178571 0.05952,0.05952 0.09871,0.151952 0.178571,0.178572 0.112939,0.03765 0.244205,-0.03765 0.357143,0 0.07986,0.02662 0.103279,0.140925 0.178572,0.178571 0.106479,0.05324 0.244204,-0.03765 0.357143,0 0.126269,0.04209 0.230873,0.136482 0.357142,0.178571 0.115484,0.03849 0.697875,0 0.892858,0 0.05952,0 0.119047,0 0.178571,0 0.05952,0 0.125332,0.02662 0.178571,0 0.07529,-0.03765 0.10853,-0.131877 0.178572,-0.178571 0.08993,-0.393422 0.367355,-0.09439 0.535714,-0.178571 0.06387,-0.03193 0.664778,-0.640025 0.714286,-0.714286 0.07383,-0.110745 0.104741,-0.246398 0.178571,-0.357143 0.09339,-0.140083 0.303903,-0.197424 0.357143,-0.357143 0.03765,-0.112938 -0.03765,-0.244204 0,-0.357143 0.02662,-0.07986 0.140925,-0.103279 0.178572,-0.178571 0.01219,-0.02439 0.01219,-1.047041 0,-1.071429 C 90.140925,93.358339 90.059524,93.314584 90,93.25506 c -0.05952,-0.05952 -0.103279,-0.140925 -0.178571,-0.178572 -0.0093,-0.0047 -0.526372,-0.0047 -0.535715,0 -0.07529,0.03765 -0.103279,0.140926 -0.178571,0.178572 -0.05324,0.02662 -0.136482,-0.04209 -0.178571,0 -0.04209,0.04209 0.04209,0.136482 0,0.178571 -0.369471,0.369471 0.01444,-0.5646 -0.357143,0.178572 -0.02662,0.05324 0.02662,0.125331 0,0.178571 -0.07529,0.150585 -0.263754,0.21706 -0.357143,0.357143 -0.14766,0.221491 -0.209483,0.492795 -0.357143,0.714286 -0.04669,0.07004 -0.131877,0.10853 -0.178571,0.178571 -0.147661,0.221491 -0.238096,0.476191 -0.357143,0.714286 -0.178572,0.357143 -0.357143,0.714286 -0.535715,1.071428 -0.424599,0.849199 0.04437,-0.221832 -0.178571,0.892858 -0.05221,0.261029 -0.29258,0.456035 -0.357143,0.714285 -0.02887,0.115493 0.02887,0.24165 0,0.357143 -0.06456,0.258251 -0.29258,0.456035 -0.357143,0.714286 -0.02887,0.115493 0.03765,0.244204 0,0.357143 -0.02662,0.07986 -0.131877,0.10853 -0.178571,0.178567 -0.338291,-0.0203 -0.119048,0.41667 -0.178572,0.53572 -0.03765,0.0753 -0.119047,0.11905 -0.178571,0.17857 -0.05952,0.0595 -0.119048,0.11905 -0.178571,0.17857"
       id="path4210"
       inkscape:connector-curvature="0" />
    <ellipse
       style="fill:#666666;fill-opacity:0;stroke:#000000;stroke-width:2;stroke-miterlimit:4;stroke-dasharray:none;stroke-opacity:0.48958333"
       id="path4216"
       cx="467.44809"
       cy="246.26047"
       rx="79.044434"
       ry="54.548237" />
    <ellipse
       style="fill:#666666;fill-opacity:0;stroke:#000000;stroke-width:2;stroke-miterlimit:4;stroke-dasharray:none;stroke-opacity:0.48958333"
       id="path4224"
       cx="469.46838"
       cy="246.51302"
       rx="16.414978"
       ry="9.8489876" />
    <path
       style="fill:none;fill-rule:evenodd;stroke:#000000;stroke-width:1px;stroke-linecap:butt;stroke-linejoin:miter;stroke-opacity:1"
       d="m 462.64987,237.67418 c 0.1715,-2.89873 1.71445,-0.60469 2.52538,-1.01016 0.21296,-0.10648 0.29211,-0.39859 0.50507,-0.50507 0.15059,-0.0753 0.3545,0.0753 0.50508,0 0.21296,-0.10648 0.29212,-0.3986 0.50508,-0.50508 0.15058,-0.0753 0.35449,0.0753 0.50507,0 0.21296,-0.10648 0.29212,-0.3986 0.50508,-0.50507 0.15058,-0.0753 0.35449,0.0753 0.50508,0 0.21295,-0.10648 0.29211,-0.3986 0.50507,-0.50508 0.30117,-0.15059 0.70898,0.15058 1.01015,0 0.21296,-0.10648 0.29212,-0.3986 0.50508,-0.50508 0.15058,-0.0753 0.35449,0.0753 0.50508,0 1.24824,-0.62412 -0.17434,-0.50507 1.01015,-0.50507 0.16836,0 0.33672,0 0.50508,0 0.16835,0 0.35449,0.0753 0.50507,0 0.21296,-0.10648 0.29212,-0.3986 0.50508,-0.50508 0.30117,-0.15058 0.77206,0.2381 1.01015,0 0.11905,-0.11905 -0.11905,-0.38603 0,-0.50508 0.2381,-0.23809 0.70898,0.15059 1.01015,0 0.21296,-0.10648 0.29212,-0.39859 0.50508,-0.50507 0.40406,-0.20203 1.11117,0.20203 1.51523,0 0.21296,-0.10648 0.29212,-0.3986 0.50507,-0.50508 0.15059,-0.0753 0.3545,0.0753 0.50508,0 0.21296,-0.10648 0.2792,-0.42978 0.50508,-0.50508 0.63887,-0.21295 1.38143,0.21296 2.0203,0 0.22588,-0.0753 0.2792,-0.42978 0.50508,-0.50507 0.31944,-0.10648 0.67343,0 1.01015,0 0.16836,0 0.35449,0.0753 0.50508,0 0.21296,-0.10648 0.29211,-0.3986 0.50507,-0.50508 0.30117,-0.15058 0.70899,0.15059 1.01016,0 0.21295,-0.10648 0.29211,-0.39859 0.50507,-0.50507 0.40406,-0.20203 1.11117,0.20203 1.51523,0 0.21296,-0.10648 0.29212,-0.3986 0.50508,-0.50508 0.40406,-0.20203 1.11116,0.20203 1.51523,0 0.21295,-0.10648 0.29211,-0.3986 0.50507,-0.50508 0.20026,-0.10013 1.41198,0.10326 1.51523,0 0.11905,-0.11904 -0.11905,-0.38603 0,-0.50507 0.2381,-0.2381 0.70898,0.15058 1.01015,0 0.21296,-0.10648 0.29212,-0.3986 0.50508,-0.50508 0.30117,-0.15058 0.70898,0.15059 1.01015,0 0.21296,-0.10648 0.29212,-0.3986 0.50508,-0.50508 0.20026,-0.10012 1.41197,0.10326 1.51523,0 0.11905,-0.11904 -0.11905,-0.38602 0,-0.50507 0.23809,-0.2381 0.70898,0.15058 1.01015,0 0.21296,-0.10648 0.29212,-0.3986 0.50508,-0.50508 0.27399,-0.137 1.8821,0.1382 2.0203,0 0.11905,-0.11905 -0.11905,-0.38603 0,-0.50507 0.11905,-0.11905 0.33672,0 0.50508,0 0.16836,0 0.33672,0 0.50507,0 1.1845,0 -0.23809,0.11904 1.01016,-0.50508 0.30117,-0.15059 0.70898,0.15058 1.01015,0 0.21296,-0.10648 0.29212,-0.3986 0.50508,-0.50508 0.30116,-0.15058 0.77205,0.2381 1.01015,0 0.11905,-0.11904 -0.11905,-0.38603 0,-0.50507 0.11905,-0.11905 0.38603,0.11904 0.50507,0 0.11905,-0.11905 -0.11904,-0.38603 0,-0.50508 0.25254,-0.25254 1.26269,0.25254 1.51523,0 0.11905,-0.11905 -0.11904,-0.38603 0,-0.50508 0.2381,-0.23809 0.77206,0.2381 1.01016,0 0.11904,-0.11904 -0.11905,-0.38602 0,-0.50507 0.0229,-0.0229 2.28723,0 2.52538,0 0.16836,0 0.38603,0.11905 0.50507,0 0.67344,-0.67344 -0.84179,-0.50508 0.50508,-0.50508 0.16836,0 0.33672,0 0.50508,0 0.16835,0 0.38602,0.11905 0.50507,0 0.11905,-0.11905 -0.11905,-0.38603 0,-0.50507 0.25254,-0.25254 1.26269,0.25253 1.51523,0 0.11905,-0.11905 -0.11905,-0.38603 0,-0.50508 0.2381,-0.2381 0.77206,0.23809 1.01015,0 0.11905,-0.11905 0.11905,-0.38603 0,-0.50508 -0.49181,-0.49181 -1.22664,0.86586 -1.51523,1.01016 -0.15058,0.0753 -0.35449,-0.0753 -0.50507,0 -0.21296,0.10648 -0.33672,0.33671 -0.50508,0.50507 -0.16836,0.16836 -0.33672,0.33672 -0.50507,0.50508 -0.67344,0.67343 -1.34687,1.34687 -2.02031,2.0203 -0.16836,0.16836 -0.33672,0.33672 -0.50508,0.50508 -0.16835,0.16836 -0.29211,0.3986 -0.50507,0.50508 -0.15059,0.0753 -0.35449,-0.0753 -0.50508,0 -0.21296,0.10648 -0.29212,0.39859 -0.50507,0.50507 -0.15059,0.0753 -0.38603,-0.11905 -0.50508,0 -0.11905,0.11905 0.0753,0.35449 0,0.50508 -1.051,2.102 0.0349,-0.53995 -1.01015,0.50507 -0.11905,0.11905 0.0753,0.3545 0,0.50508 -1.05101,2.10201 0.0349,-0.53994 -1.01016,0.50508 -0.11904,0.11904 0.0753,0.35449 0,0.50507 -1.051,2.10201 0.0349,-0.53994 -1.01015,0.50508 -0.11905,0.11905 0.11905,0.38603 0,0.50508 -0.11905,0.11904 -0.38603,-0.11905 -0.50507,0 -0.11905,0.11904 0.11904,0.38602 0,0.50507 -0.11905,0.11905 -0.38603,-0.11905 -0.50508,0 -0.11905,0.11905 0.11905,0.38603 0,0.50508 -0.11905,0.11905 -0.38603,-0.11905 -0.50508,0 -1.04502,1.04502 1.59693,-0.0408 -0.50507,1.01015 -0.15059,0.0753 -0.38603,-0.11905 -0.50508,0 -0.11905,0.11905 0.11905,0.38603 0,0.50508 -0.11905,0.11905 -0.35449,-0.0753 -0.50508,0 -0.21295,0.10648 -0.33671,0.33671 -0.50507,0.50507 -0.16836,0.16836 -0.3986,0.29212 -0.50508,0.50508 -0.0753,0.15058 0.11905,0.38603 0,0.50508 -0.11905,0.11904 -0.38603,-0.11905 -0.50507,0 -0.11905,0.11904 0.11904,0.38602 0,0.50507 -0.11905,0.11905 -0.3545,-0.0753 -0.50508,0 -2.10201,1.05101 0.53994,-0.0349 -0.50508,1.01016 -0.11905,0.11904 -0.35449,-0.0753 -0.50507,0 -0.49701,0.2485 -1.5233,1.7718 -2.02031,2.0203 -0.15058,0.0753 -0.35449,-0.0753 -0.50508,0 -0.21295,0.10648 -0.33671,0.33672 -0.50507,0.50508 -0.16836,0.16836 -0.3986,0.29211 -0.50508,0.50507 -0.0753,0.15059 0.0753,0.35449 0,0.50508 -0.10648,0.21296 -0.33672,0.33672 -0.50507,0.50508 -0.16836,0.16835 -0.29212,0.39859 -0.50508,0.50507 -0.15058,0.0753 -0.35449,-0.0753 -0.50508,0 -0.60609,0.30305 -0.90913,1.21218 -1.51523,1.51523 -0.15058,0.0753 -0.35449,-0.0753 -0.50507,0 -0.42592,0.21296 -0.58424,0.79719 -1.01015,1.01015 -0.15059,0.0753 -0.38603,-0.11904 -0.50508,0 -0.11905,0.11905 0.11905,0.38603 0,0.50508 -0.11905,0.11905 -0.38603,-0.11905 -0.50508,0 -0.11904,0.11905 0.11905,0.38603 0,0.50508 -0.11904,0.11904 -0.38603,-0.11905 -0.50507,0 -0.11905,0.11904 0.11904,0.38602 0,0.50507 -0.11905,0.11905 -0.38603,-0.11905 -0.50508,0 -0.11905,0.11905 0.11905,0.38603 0,0.50508 -0.11905,0.11905 -0.38603,-0.11905 -0.50508,0 -0.11904,0.11905 0.11905,0.38603 0,0.50507 -0.11904,0.11905 -0.38602,-0.11904 -0.50507,0 -0.11905,0.11905 0.11905,0.38603 0,0.50508 -0.11905,0.11905 -0.38603,-0.11905 -0.50508,0 -0.67343,0.67344 0.8418,0.50508 -0.50507,0.50508"
       id="path4226"
       inkscape:connector-curvature="0" />
    <path
       style="fill:none;fill-rule:evenodd;stroke:#000000;stroke-width:1px;stroke-linecap:butt;stroke-linejoin:miter;stroke-opacity:1"
       d="m 452.04326,243.23002 c -0.50507,0.67343 -1.08213,1.29847 -1.51522,2.0203 -0.0866,0.14437 0.0753,0.35449 0,0.50508 -0.21296,0.42591 -0.7972,0.58423 -1.01016,1.01015 -0.0753,0.15058 0.0753,0.35449 0,0.50508 -0.2485,0.49701 -1.7718,1.52329 -2.0203,2.0203 -0.0753,0.15059 0.0753,0.35449 0,0.50508 -0.30305,0.60609 -1.21219,0.90913 -1.51523,1.51523 -0.0753,0.15058 0.0753,0.35449 0,0.50507 -0.21296,0.42592 -0.79719,0.58424 -1.01015,1.01015 -0.0753,0.15059 0.11904,0.38603 0,0.50508 -0.11905,0.11905 -0.38603,-0.11905 -0.50508,0 -0.11905,0.11905 0.11905,0.38603 0,0.50508 -0.11905,0.11904 -0.38603,-0.11905 -0.50508,0 -0.23809,0.23809 0.2381,0.77205 0,1.01015 -0.11904,0.11905 -0.38602,-0.11905 -0.50507,0 -0.11905,0.11905 0.11905,0.38603 0,0.50508 -0.11905,0.11904 -0.38603,-0.11905 -0.50508,0 -0.11905,0.11904 0.11905,0.38602 0,0.50507 -0.11905,0.11905 -0.38603,-0.11905 -0.50507,0 -0.11905,0.11905 0.11904,0.38603 0,0.50508 -0.11905,0.11905 -0.38603,-0.11905 -0.50508,0 -0.11905,0.11905 0.11905,0.38603 0,0.50507 -0.11905,0.11905 -0.38603,-0.11904 -0.50508,0 -0.11905,0.11905 0.11905,0.38603 0,0.50508 -0.11905,0.11905 -0.38603,-0.11905 -0.50507,0 -0.11905,0.11905 0.11904,0.38603 0,0.50508 -0.11905,0.11905 -0.38603,-0.11905 -0.50508,0 -0.11905,0.11905 0.11905,0.38603 0,0.50507 -0.11905,0.11905 -0.38603,-0.11904 -0.50508,0 -0.11904,0.11905 0.11905,0.38603 0,0.50508 -0.11904,0.11905 -0.38602,-0.11905 -0.50507,0 -0.11905,0.11905 0.11905,0.38603 0,0.50508 -0.11905,0.11904 -0.38603,-0.11905 -0.50508,0 -0.11905,0.11904 0.11905,0.38602 0,0.50507 -0.23809,0.2381 -0.77206,-0.23809 -1.01015,0 -0.11905,0.11905 0.11905,0.38603 0,0.50508 -0.11905,0.11905 -0.38603,-0.11905 -0.50508,0 -0.11905,0.11905 0.11905,0.38603 0,0.50508 -0.11905,0.11904 -0.38603,-0.11905 -0.50507,0 -0.11905,0.11904 0.11904,0.38602 0,0.50507 -0.11905,0.11905 -0.38603,-0.11905 -0.50508,0 -0.11905,0.11905 0.11905,0.38603 0,0.50508 -0.11905,0.11905 -0.38603,-0.11905 -0.50508,0 -0.11904,0.11905 0.11905,0.38603 0,0.50507 -1.04502,1.04502 0.0408,-1.59693 -1.01015,0.50508 0,1.34687 0.16836,-0.16836 -0.50508,0.50508 -0.11904,0.11904 0.11905,0.38603 0,0.50507 -0.11904,0.11905 -0.38602,-0.11904 -0.50507,0 -0.11905,0.11905 0.11905,0.38603 0,0.50508 -0.11905,0.11905 -0.38603,-0.11905 -0.50508,0 -0.11905,0.11905 0.11905,0.38603 0,0.50508 -0.11905,0.11904 -0.35449,-0.0753 -0.50507,0 -0.21296,0.10647 -0.29212,0.39859 -0.50508,0.50507 -0.15059,0.0753 -0.38603,-0.11905 -0.50508,0 -0.11904,0.11905 0.11905,0.38603 0,0.50508 -0.11904,0.11905 -0.38603,-0.11905 -0.50507,0 -0.11905,0.11905 0.11904,0.38603 0,0.50507 -0.11905,0.11905 -0.38603,-0.11904 -0.50508,0 -0.11905,0.11905 0.11905,0.38603 0,0.50508 -0.23809,0.2381 -0.77206,-0.23809 -1.01015,0 -0.11905,0.11905 0.11905,0.38603 0,0.50508 -0.11905,0.11904 -0.38603,-0.11905 -0.50508,0 -0.11905,0.11904 0.11905,0.38603 0,0.50507 -0.11905,0.11905 -0.38603,-0.11904 -0.50507,0 -0.11905,0.11905 0.11904,0.38603 0,0.50508 -0.2381,0.23809 -0.77206,-0.2381 -1.01016,0 -0.11904,0.11905 0.11905,0.38603 0,0.50508 -0.11904,0.11904 -0.38603,-0.11905 -0.50507,0 -0.11905,0.11904 0.11904,0.38602 0,0.50507 -0.11905,0.11905 -0.50508,0.16836 -0.50508,0 0,-0.16836 0.33672,0 0.50508,0 0.50507,0 1.01015,0 1.51523,0 0.33189,0 1.23026,0.095 1.51522,0 0.35715,-0.11905 0.65301,-0.38603 1.01016,-0.50507 0.31944,-0.10648 0.67343,0 1.01015,0 1.14109,0 -0.22588,0.0753 1.51523,-0.50508 0.40653,-0.13551 1.69755,0.16138 2.0203,0 0.21296,-0.10648 0.2792,-0.42978 0.50508,-0.50508 0.45324,-0.31944 1.03607,0.15972 1.51523,0 0.35714,-0.11904 0.65301,-0.38603 1.01015,-0.50507 0.31944,-0.10648 0.70898,0.15058 1.01015,0 0.21296,-0.10648 0.29212,-0.3986 0.50508,-0.50508 0.15058,-0.0753 0.33672,0 0.50508,0 0.33671,0 0.69071,0.10648 1.01015,0 0.22588,-0.0753 0.29212,-0.3986 0.50508,-0.50508 0.15058,-0.0753 0.33671,0 0.50507,0 0.16836,-0.16835 0.30697,-0.373 0.50508,-0.50507 1.71696,-1.14464 0.27087,-0.0677 2.0203,-0.50508 0.73045,-0.18261 1.28986,-0.82754 2.02031,-1.01015 0.32666,-0.0817 0.68349,0.0817 1.01015,0 0.36522,-0.0913 0.641,-0.43125 1.01015,-0.50508 0.49527,-0.099 1.01996,0.0991 1.51523,0 0.36915,-0.0738 0.64493,-0.41377 1.01015,-0.50507 0.32667,-0.0817 0.68349,0.0817 1.01016,0 0.36522,-0.0913 0.64493,-0.41377 1.01015,-0.50508 0.32666,-0.0817 0.68349,0.0817 1.01015,0 0.36522,-0.0913 0.64493,-0.41377 1.01015,-0.50508 0.32667,-0.0817 0.67344,0 1.01016,0 0.16836,0 0.35449,0.0753 0.50507,0 0.21296,-0.10648 0.2792,-0.42978 0.50508,-0.50507 0.31944,-0.10648 0.67343,0 1.01015,0 0.16836,0 0.35449,0.0753 0.50508,0 0.21296,-0.10648 0.29212,-0.3986 0.50507,-0.50508 0.40407,-0.20203 1.11117,0.20203 1.51523,0 0.21296,-0.10648 0.29212,-0.3986 0.50508,-0.50507 0.274,-0.137 1.8821,0.1382 2.0203,0 0.11905,-0.11905 -0.11904,-0.38603 0,-0.50508 0.25254,-0.25254 1.2627,0.25254 1.51523,0 0.11905,-0.11905 -0.11904,-0.38603 0,-0.50508 0.12154,-0.12153 1.89877,0.12154 2.02031,0 0.11905,-0.11905 -0.11905,-0.38603 0,-0.50507 0.11905,-0.11905 0.38603,0.11904 0.50508,0 0.11904,-0.11905 -0.11905,-0.38603 0,-0.50508 0.23809,-0.2381 0.70898,0.15058 1.01015,0 0.21296,-0.10648 0.29211,-0.3986 0.50507,-0.50508 0.15059,-0.0753 0.38603,0.11905 0.50508,0 0.11905,-0.11904 -0.11905,-0.38602 0,-0.50507 0.2381,-0.2381 0.77206,0.23809 1.01015,0 0.11905,-0.11905 -0.11904,-0.38603 0,-0.50508 0.2381,-0.23809 0.70899,0.15059 1.01016,0 0.21295,-0.10648 0.29211,-0.3986 0.50507,-0.50508 0.15059,-0.0753 0.38603,0.11905 0.50508,0 0.11905,-0.11904 -0.11905,-0.38602 0,-0.50507 0.25254,-0.25254 1.26269,0.25254 1.51523,0 0.11904,-0.11905 -0.11905,-0.38603 0,-0.50508 0.23809,-0.23809 0.77205,0.2381 1.01015,0 0.11905,-0.11905 -0.11905,-0.38603 0,-0.50507 0.11905,-0.11905 0.33672,0 0.50508,0 0.16835,0 0.33671,0 0.50507,0"
       id="path4228"
       inkscape:connector-curvature="0" />
    <text
       xml:space="preserve"
       style="font-style:normal;font-weight:normal;font-size:40px;line-height:100%;font-family:sans-serif;letter-spacing:0px;word-spacing:0px;fill:#000000;fill-opacity:1;stroke:none;stroke-width:1px;stroke-linecap:butt;stroke-linejoin:miter;stroke-opacity:1"
       x="83.842667"
       y="278.08026"
       id="text8162"
       sodipodi:linespacing="100%"><tspan
         sodipodi:role="line"
         id="tspan8164"
         x="83.842667"
         y="278.08026"
         style="font-style:normal;font-variant:normal;font-weight:normal;font-stretch:normal;font-size:15px;line-height:100%;font-family:'TeX Gyre Adventor';-inkscape-font-specification:'TeX Gyre Adventor, Normal';text-align:start;writing-mode:lr-tb;text-anchor:start">ACC X: 0.11</tspan><tspan
         sodipodi:role="line"
         x="83.842667"
         y="293.08026"
         id="tspan8166"
         style="font-style:normal;font-variant:normal;font-weight:normal;font-stretch:normal;font-size:15px;line-height:100%;font-family:'TeX Gyre Adventor';-inkscape-font-specification:'TeX Gyre Adventor, Normal';text-align:start;writing-mode:lr-tb;text-anchor:start">ACC Y: 0.29</tspan><tspan
         sodipodi:role="line"
         x="83.842667"
         y="308.08026"
         id="tspan8168"
         style="font-style:normal;font-variant:normal;font-weight:normal;font-stretch:normal;font-size:15px;line-height:100%;font-family:'TeX Gyre Adventor';-inkscape-font-specification:'TeX Gyre Adventor, Normal';text-align:start;writing-mode:lr-tb;text-anchor:start">ACC Z: 1.01</tspan><tspan
         sodipodi:role="line"
         x="83.842667"
         y="323.08026"
         id="tspan8170"
         style="font-style:normal;font-variant:normal;font-weight:normal;font-stretch:normal;font-size:15px;line-height:100%;font-family:'TeX Gyre Adventor';-inkscape-font-specification:'TeX Gyre Adventor, Normal';text-align:start;writing-mode:lr-tb;text-anchor:start">MAG X: 2.25</tspan><tspan
         sodipodi:role="line"
         x="83.842667"
         y="338.08026"
         id="tspan8172"
         style="font-style:normal;font-variant:normal;font-weight:normal;font-stretch:normal;font-size:15px;line-height:100%;font-family:'TeX Gyre Adventor';-inkscape-font-specification:'TeX Gyre Adventor, Normal';text-align:start;writing-mode:lr-tb;text-anchor:start">MAG Y: 4.85</tspan><tspan
         sodipodi:role="line"
         x="83.842667"
         y="353.08026"
         id="tspan8174"
         style="font-style:normal;font-variant:normal;font-weight:normal;font-stretch:normal;font-size:15px;line-height:100%;font-family:'TeX Gyre Adventor';-inkscape-font-specification:'TeX Gyre Adventor, Normal';text-align:start;writing-mode:lr-tb;text-anchor:start">MAG Z: 1.23</tspan></text>
  </g>
</svg>
